<svg xmlns="http://www.w3.org/2000/svg" viewBox="0 0 600 940.0"><style>path{fill:rgba(120,138,178,.10);stroke:rgba(140,160,200,.34);stroke-width:.6;stroke-linejoin:round}</style><path d="M445 124 436 124 436 122 434 122 431 123 427 122 426 121 423 118 413 117 411 119 406 117 403 110 398 114 394 112 391 112 389 111 386 109 384 111 385 114 379 120 376 120 376 118 378 116 375 117 374 116 360 114 358 117 357 115 357 113 352 113 349 116 347 116 349 114 347 113 346 110 347 109 347 107 348 104 351 103 349 97 356 96 359 91 356 87 353 87 353 81 357 81 357 84 361 85 362 83 365 83 366 81 372 82 374 79 376 79 374 66 376 63 381 62 380 56 382 54 376 51 378 49 377 48 378 46 381 42 386 42 387 46 390 46 390 44 391 43 394 44 395 47 401 46 402 45 400 41 407 38 406 35 409 32 410 29 415 30 413 25 415 23 417 20 416 18 419 17 418 14 418 12 421 10 428 8 429 6 432 9 435 6 435 13 441 14 438 18 439 20 434 24 435 26 440 27 444 25 444 29 445 30 447 32 450 31 454 29 454 26 459 28 460 29 462 28 466 29 465 30 462 34 463 38 460 41 463 45 465 46 465 55 462 57 460 58 458 60 459 63 463 63 464 66 466 65 469 68 472 68 473 72 472 74 470 74 470 72 468 73 469 75 468 76 468 80 463 80 465 85 462 84 459 92 456 91 456 93 453 96 457 97 459 99 461 99 461 101 458 104 455 105 446 109 445 115 446 117 446 119 445 124Z"/><path d="M346 110 347 113 349 113 348 116 352 113 357 113 357 115 358 117 360 114 374 116 375 117 378 116 376 118 376 120 379 120 385 114 384 111 386 109 389 111 391 111 394 112 398 114 403 110 406 117 411 119 413 117 422 118 426 121 427 122 431 123 434 122 436 122 436 124 445 124 447 124 448 125 449 126 451 126 453 129 456 125 459 128 464 126 465 130 475 133 477 134 477 138 472 137 473 134 471 138 467 139 467 142 462 141 462 144 457 143 454 144 454 147 457 148 455 150 456 152 450 155 449 154 446 152 446 158 444 163 447 165 443 168 442 171 440 170 436 173 440 174 438 176 435 176 434 181 440 186 447 188 447 190 450 192 452 197 452 201 449 203 450 207 448 209 448 214 446 214 447 218 442 218 441 220 439 219 440 216 436 217 433 215 431 212 428 211 428 213 425 211 421 212 418 210 414 210 412 213 411 211 408 211 408 214 403 214 399 215 398 211 396 211 395 209 392 213 389 213 389 216 391 217 392 220 388 222 384 222 385 224 386 225 385 228 380 226 375 228 374 222 376 220 374 219 374 217 370 217 366 221 363 220 362 222 359 223 359 225 355 224 355 227 353 228 353 236 351 236 352 233 349 232 348 231 345 232 344 235 342 234 341 236 342 240 339 239 339 237 338 238 338 234 334 234 328 237 324 236 322 238 322 240 319 242 316 242 315 240 314 241 311 241 312 238 314 238 313 235 305 234 305 230 310 230 310 228 302 227 305 222 312 223 312 225 318 225 316 221 313 221 313 219 313 217 317 216 316 212 313 210 312 213 308 212 308 206 313 205 314 203 312 195 312 189 308 193 307 190 303 187 307 185 308 183 303 184 304 180 303 177 300 180 292 180 291 182 288 182 285 178 281 178 280 177 273 170 268 168 269 165 269 163 265 161 266 158 267 157 269 153 272 153 277 156 278 162 280 160 278 155 286 153 288 151 289 154 292 154 292 157 298 158 297 156 301 155 302 160 306 160 308 156 310 155 310 152 304 152 305 144 300 144 299 139 305 136 301 136 301 133 304 132 304 130 301 129 299 122 311 121 312 116 314 116 315 114 320 113 320 106 325 106 325 100 331 100 330 101 331 107 335 105 336 99 339 101 339 104 342 106 343 110 346 110Z"/><path d="M170 209 169 220 177 221 175 227 176 235 173 235 173 241 163 241 161 243 160 244 161 251 159 256 154 255 148 257 146 259 147 265 146 266 144 267 141 270 140 269 135 261 134 265 126 265 124 270 124 275 124 277 128 276 128 279 136 279 135 283 131 284 130 286 131 295 135 293 142 293 145 295 145 300 156 303 156 310 163 311 163 314 164 315 162 322 168 322 172 321 178 323 179 320 180 322 183 322 181 325 182 329 184 329 184 331 180 331 181 337 183 338 182 341 183 343 181 349 183 349 183 352 184 353 185 354 185 363 183 368 180 367 181 359 174 359 173 364 170 364 170 361 168 364 165 363 165 370 167 370 167 373 167 375 165 375 164 373 161 373 161 376 162 380 161 386 158 386 156 381 152 381 152 386 140 382 137 391 133 388 133 381 132 382 129 383 128 386 121 385 121 388 113 388 110 390 103 391 105 396 99 399 101 405 98 408 96 411 93 406 90 407 92 411 90 415 91 417 92 418 86 418 85 419 80 421 75 425 66 417 58 420 56 417 54 419 51 419 50 411 49 409 44 408 40 403 31 403 31 399 29 397 27 397 29 390 27 389 28 385 26 383 22 385 21 384 19 383 20 381 18 381 17 382 16 385 13 386 11 385 8 383 6 383 11 381 12 378 11 376 16 372 21 371 22 368 24 367 25 369 26 373 30 371 32 373 35 372 37 369 40 370 42 368 43 366 42 363 45 358 39 358 42 355 43 353 46 358 48 358 45 351 51 344 55 333 55 331 51 330 44 333 44 331 42 331 43 327 46 327 51 323 58 326 59 323 57 318 59 313 60 312 60 309 61 307 59 306 58 304 56 306 54 304 49 303 49 300 45 301 44 303 42 299 40 298 41 301 37 301 40 298 37 296 38 294 36 294 37 293 36 292 38 292 36 286 37 287 39 285 41 288 42 283 39 284 38 277 33 275 33 270 31 270 31 272 29 273 27 271 31 270 29 265 30 264 32 267 33 266 35 270 36 263 39 264 41 262 42 265 44 267 47 259 50 259 52 257 56 256 54 250 56 248 59 253 66 252 66 258 69 259 67 262 69 263 74 261 76 259 78 256 85 256 85 254 80 252 82 248 85 246 84 245 85 242 86 241 90 241 96 236 99 237 105 235 106 233 108 235 108 233 115 234 113 221 120 219 121 215 120 216 117 214 116 213 115 211 117 210 121 213 121 210 124 209 129 210 129 212 137 209 138 214 141 214 143 217 143 220 149 221 150 220 149 224 153 224 155 224 157 221 160 221 162 219 163 216 162 213 162 209 170 209Z"/><path d="M316 242 318 242 322 240 322 238 324 236 328 237 334 234 338 234 338 238 339 237 339 239 342 240 341 236 342 234 344 235 345 232 348 231 349 232 352 233 351 236 353 236 353 228 355 227 355 224 359 225 359 223 362 222 363 220 366 221 370 217 374 217 374 219 376 220 374 222 375 228 380 226 385 229 386 225 385 224 384 222 388 222 392 220 391 217 389 216 389 213 392 213 395 209 396 211 398 211 399 215 403 214 408 214 408 211 411 211 412 213 414 210 418 210 421 212 425 211 428 213 428 211 431 212 433 215 436 217 440 216 439 219 441 220 442 218 447 218 447 226 449 231 448 232 444 231 445 235 442 240 444 242 445 241 449 241 448 245 447 247 442 248 443 250 444 251 447 249 449 250 446 255 448 256 447 259 444 259 442 261 438 261 440 263 442 264 441 267 437 268 436 269 435 272 430 272 426 271 425 274 418 274 420 276 424 282 422 283 419 282 410 280 407 274 399 271 394 268 389 270 388 265 387 263 385 262 383 263 383 270 375 272 370 272 369 276 366 280 359 281 356 280 353 283 336 292 319 298 318 299 300 312 302 306 302 300 295 300 296 295 294 293 297 291 296 286 297 284 300 285 300 280 303 281 306 280 307 279 313 279 313 268 309 251 312 244 315 241 317 242Z"/><path d="M184 353 183 352 183 349 181 349 183 343 182 341 183 338 181 337 180 332 184 331 184 329 182 329 181 325 183 322 180 322 179 320 178 323 172 322 168 322 162 322 164 315 163 314 163 311 156 310 156 303 145 300 146 295 142 293 135 293 131 295 130 286 131 284 135 283 136 279 129 279 128 276 124 277 124 275 124 270 126 265 134 265 135 261 140 269 141 270 144 267 146 266 147 265 146 259 148 257 154 255 159 256 161 251 160 244 161 243 163 241 173 241 173 235 176 235 178 234 181 234 190 237 189 244 183 244 186 254 190 258 187 262 189 263 189 269 185 269 186 274 182 279 184 282 189 282 191 280 191 277 195 275 198 276 198 281 199 282 204 278 208 278 220 285 231 288 250 298 260 297 265 303 265 306 264 307 264 309 265 310 274 314 278 313 281 314 287 316 287 320 288 321 290 325 291 323 300 326 299 328 291 326 290 328 296 328 297 338 295 338 299 347 297 348 293 348 293 351 290 351 290 348 286 348 286 346 282 346 277 349 275 352 271 353 269 351 264 351 267 339 266 337 264 337 255 337 253 340 253 342 253 357 247 355 245 350 243 348 242 349 240 347 228 348 227 351 231 352 234 352 235 354 234 356 236 355 236 360 230 357 230 359 227 358 227 363 223 363 216 361 214 362 213 360 211 361 209 359 208 361 206 360 206 362 202 361 201 362 199 360 198 362 195 360 192 358 193 357 191 357 191 355 188 355 184 353Z"/><path d="M300 312 318 299 319 298 336 292 353 283 356 280 359 281 366 280 369 276 370 272 375 272 383 270 383 264 385 262 387 263 388 264 389 270 394 268 399 271 407 274 410 280 419 282 421 283 424 283 426 283 427 284 434 286 436 286 440 288 442 288 451 286 453 287 455 287 460 291 465 292 464 293 465 297 460 297 458 299 457 302 455 300 453 301 451 304 451 307 454 307 452 308 450 316 451 322 454 323 452 324 451 326 453 327 451 333 454 337 454 348 443 345 436 346 419 343 407 345 397 350 393 355 390 360 386 364 379 370 376 379 372 381 368 386 365 388 365 397 362 399 355 397 354 394 346 393 345 390 345 388 347 389 346 386 344 387 344 384 334 382 334 379 326 379 323 376 320 378 315 374 314 367 310 366 315 359 311 356 312 353 305 351 305 349 302 351 303 354 302 356 300 355 301 351 297 351 294 353 293 351 293 348 297 348 299 347 295 339 297 338 296 328 290 328 290 326 299 328 300 326 291 323 290 325 288 321 287 320 287 316 293 317 295 313 299 312Z"/><path d="M236 360 236 355 234 356 235 354 234 352 231 352 227 351 228 348 240 347 242 349 243 348 245 350 247 355 253 357 253 342 253 340 255 337 264 337 266 337 267 339 264 351 269 351 271 353 275 352 277 349 282 347 286 346 286 348 290 348 290 351 293 351 294 352 297 352 301 351 300 355 302 356 303 354 302 351 305 349 305 351 312 353 311 356 315 359 310 366 314 367 315 374 320 378 323 376 326 379 334 379 334 382 344 384 344 387 346 386 347 389 345 388 345 390 346 393 354 394 355 397 362 399 362 404 360 406 349 407 343 412 336 413 334 417 329 420 321 427 318 426 309 429 304 429 300 438 296 439 294 443 290 445 289 448 285 447 286 442 281 442 277 444 277 447 271 446 268 451 264 452 262 453 261 454 253 453 250 455 249 450 246 449 246 445 245 441 243 440 243 436 242 434 241 426 243 425 244 419 239 418 238 413 233 412 232 408 231 407 233 406 238 404 239 393 243 391 243 389 241 388 241 383 239 382 239 377 241 376 241 374 243 372 244 373 246 375 245 379 248 380 249 382 252 381 252 383 258 384 258 381 254 383 254 379 257 377 259 377 262 376 261 369 255 368 254 365 251 366 247 366 236 360Z"/><path d="M163 380 161 376 161 373 164 373 165 375 167 375 167 373 167 370 165 370 165 363 168 364 170 361 170 364 173 364 174 359 181 359 180 367 183 368 185 363 185 354 184 353 188 355 191 355 191 357 193 357 192 358 195 360 198 361 199 360 201 362 202 361 206 362 206 360 208 361 209 359 211 361 213 360 214 362 215 361 222 363 227 363 227 358 230 359 230 357 236 360 247 366 251 367 254 365 255 368 260 369 262 375 259 377 257 377 254 379 254 383 258 381 258 384 252 383 252 381 249 382 248 380 245 379 246 375 244 373 243 372 241 374 241 376 239 377 239 382 241 383 241 388 243 389 243 391 239 393 238 404 233 405 232 407 233 411 238 413 239 418 244 419 243 425 241 426 242 434 243 436 243 440 245 441 246 445 246 449 249 450 250 455 247 454 243 455 241 459 244 463 244 465 241 466 240 469 236 467 234 469 231 470 228 473 227 476 222 481 220 480 218 480 216 477 213 475 211 475 208 474 205 477 205 479 199 476 196 476 196 471 195 469 190 467 186 467 184 465 180 465 180 462 182 459 178 450 177 451 178 446 182 446 184 445 183 443 180 442 180 438 178 438 178 436 180 436 179 433 184 432 185 427 184 421 187 421 188 420 190 423 190 410 189 407 187 407 188 403 188 401 195 401 195 393 198 386 191 386 189 378 187 379 187 381 184 381 179 385 173 383 172 386 169 386 170 382 164 380Z"/><path d="M362 399 365 397 365 388 368 386 372 381 376 379 379 370 386 364 390 360 395 361 396 367 393 372 393 375 397 375 398 377 397 379 404 383 403 388 398 384 391 387 391 405 383 404 384 406 391 414 391 419 393 421 392 424 395 427 395 429 402 428 402 433 407 434 406 436 409 438 406 439 403 441 403 443 407 444 408 446 408 448 408 452 405 452 405 454 407 454 407 457 404 460 402 469 398 469 398 472 393 472 393 469 387 469 385 470 376 469 371 469 369 465 365 463 361 460 358 463 357 465 359 471 357 474 356 475 352 475 352 472 352 470 350 469 348 469 348 471 346 470 344 471 346 476 350 477 350 480 349 481 347 483 342 481 343 483 343 485 345 485 345 489 347 488 349 492 349 495 353 498 348 498 343 501 343 504 341 506 340 512 336 516 336 518 334 518 334 520 336 521 334 523 335 525 333 525 330 529 326 533 323 533 322 532 312 530 313 525 308 524 307 521 305 521 306 519 301 519 300 516 293 516 290 514 286 521 280 514 282 509 281 505 278 502 276 503 275 501 275 497 277 496 282 498 281 494 277 494 276 492 273 492 266 491 265 489 267 485 263 485 262 483 258 487 257 486 256 487 254 486 253 487 252 486 240 491 239 493 237 492 237 489 234 489 232 487 230 491 231 495 232 496 234 498 233 503 230 505 226 501 225 504 224 509 222 510 219 511 220 504 216 503 214 501 212 500 216 493 219 493 221 492 222 489 221 487 216 488 215 482 216 481 217 480 220 480 222 481 227 476 228 473 231 470 234 469 236 467 240 469 241 466 244 465 244 463 241 459 243 455 247 454 250 455 253 453 261 454 262 453 264 452 268 451 271 446 277 447 277 444 281 442 286 442 285 447 289 448 290 445 294 443 296 439 300 438 304 429 309 429 318 426 321 427 329 420 334 417 336 413 343 412 349 407 360 406 362 404 362 399Z"/><path d="M91 417 90 415 92 411 90 407 93 406 96 411 98 408 101 405 99 399 105 396 103 391 110 390 113 388 121 388 121 385 128 386 129 383 132 383 133 381 133 388 137 391 140 382 152 386 152 381 156 381 158 386 161 386 162 380 164 380 170 382 169 386 172 386 173 383 179 385 184 381 187 381 187 379 189 378 191 386 198 386 195 393 195 401 188 401 188 403 187 407 189 407 190 410 190 423 188 420 187 421 184 421 185 427 184 432 179 433 179 436 178 438 180 438 180 442 183 443 184 445 182 445 178 446 177 451 178 450 182 459 180 462 180 465 174 467 170 464 169 462 171 460 170 458 169 451 166 452 166 455 163 455 160 457 159 460 157 459 150 460 146 460 146 458 144 459 143 457 145 454 144 452 143 454 139 454 140 457 136 458 136 463 133 464 133 462 127 464 118 464 118 466 116 467 115 468 113 466 111 466 110 463 111 460 107 459 104 456 105 453 109 447 109 444 114 439 113 436 111 432 109 433 109 430 106 427 103 427 102 423 102 421 99 422 95 419 95 417 92 417Z"/><path d="M31 403 40 403 44 408 49 409 50 411 51 419 54 419 56 417 58 420 66 417 75 425 80 421 85 419 86 418 92 418 91 417 95 417 95 419 99 422 102 421 103 423 103 427 106 427 109 430 109 433 111 432 113 435 114 439 109 444 109 447 105 453 104 455 107 459 111 460 110 463 111 466 113 466 115 468 116 467 118 466 118 464 127 464 133 462 133 464 136 463 135 471 135 477 136 479 138 479 139 482 134 484 135 491 134 495 137 499 133 498 135 503 131 504 132 508 130 510 127 511 128 513 130 513 130 519 132 521 129 526 129 529 128 532 130 533 134 535 130 537 131 541 128 541 124 545 124 541 122 538 122 534 119 534 117 538 116 537 113 537 111 544 115 546 111 546 109 548 110 550 115 550 117 554 119 555 118 560 122 563 122 565 115 566 113 570 114 571 116 571 117 575 114 578 111 579 109 576 106 580 104 578 98 578 95 576 90 573 88 577 89 580 93 589 82 584 77 587 77 589 79 589 79 593 78 596 81 601 80 603 83 604 82 610 79 614 79 617 77 616 73 618 71 619 69 615 67 616 62 610 56 583 52 578 46 552 45 549 41 540 35 538 36 535 30 524 32 524 32 521 30 514 28 513 29 511 25 507 25 509 22 509 22 511 18 507 15 508 15 506 13 503 10 504 10 502 7 500 10 500 11 495 9 494 7 487 11 483 16 485 15 481 16 479 18 479 21 483 26 478 28 479 29 476 28 474 30 473 34 468 30 460 32 458 32 453 36 448 34 443 29 441 28 438 31 435 37 435 39 433 36 429 37 424 31 420 30 417 31 413 28 407 31 403Z"/><path d="M180 462 180 465 184 465 186 467 190 467 195 469 196 471 196 476 199 476 204 479 205 477 208 474 211 475 213 475 215 477 217 480 216 481 215 482 216 488 221 487 222 489 221 492 219 493 216 493 212 499 214 501 216 503 220 504 218 511 222 510 225 509 225 511 222 515 225 517 230 516 230 518 231 520 231 528 232 532 230 535 230 539 224 539 219 545 216 542 212 547 211 546 209 546 208 548 209 550 207 562 208 566 205 566 204 569 202 571 195 571 195 569 191 567 191 562 188 562 188 566 171 556 172 553 175 553 175 550 173 549 172 551 170 550 171 543 167 539 160 539 160 537 164 535 160 530 157 530 157 534 155 532 155 530 153 531 150 529 149 528 152 528 152 522 150 524 147 523 146 525 138 520 135 520 132 521 130 519 130 513 128 513 127 511 130 510 132 508 131 504 135 503 133 498 137 499 134 495 135 491 134 484 139 482 138 479 136 479 135 477 135 471 136 463 136 458 140 457 139 454 143 454 144 452 145 454 143 457 144 459 146 458 146 460 150 460 157 459 159 460 160 457 163 455 166 455 166 452 169 451 170 458 171 459 169 462 170 464 174 467 180 465 180 462Z"/><path d="M323 533 326 533 330 529 333 525 335 525 334 523 336 521 334 520 334 518 336 518 336 516 340 512 341 506 343 504 343 501 348 498 353 498 349 495 349 492 347 488 345 489 345 485 343 485 343 483 342 481 347 483 349 481 350 480 350 477 346 476 344 471 346 470 348 471 348 469 350 469 352 470 352 472 352 475 356 475 356 477 363 477 364 479 369 477 369 487 367 488 368 491 368 495 366 495 368 499 366 499 365 502 358 502 361 508 357 516 356 527 358 528 361 537 365 537 368 540 370 544 374 542 383 543 382 548 380 548 379 555 376 552 374 555 372 555 372 562 374 565 380 566 381 569 377 572 379 575 385 575 388 577 387 578 387 582 390 584 382 584 380 582 379 585 373 586 372 590 375 591 377 590 380 594 380 596 377 598 377 601 375 600 372 602 370 607 366 606 364 609 367 611 367 614 362 617 363 620 356 619 354 620 351 622 356 631 357 636 356 638 354 638 352 638 351 636 347 640 346 645 346 650 344 647 338 647 337 645 331 647 331 651 327 654 325 654 326 656 321 660 316 660 316 664 312 664 310 666 308 663 306 666 305 664 302 665 301 666 300 663 295 664 292 662 294 656 291 656 285 652 285 647 279 647 278 646 276 645 273 634 271 634 269 627 266 625 263 625 262 622 260 622 262 616 265 617 266 611 263 611 262 610 263 597 262 595 260 596 259 593 262 588 264 587 264 579 266 575 274 574 273 571 271 571 272 569 270 567 271 565 277 565 276 556 274 551 279 548 279 546 283 547 285 549 287 548 290 548 293 554 306 552 308 550 312 549 311 548 316 547 316 540 319 540 325 536 326 535 324 534 323 533Z"/><path d="M225 509 225 504 226 501 230 505 233 503 234 499 232 496 231 495 230 491 232 487 234 489 237 489 237 492 239 493 240 491 252 486 253 487 254 486 256 487 257 486 258 487 262 483 263 485 267 485 265 489 266 491 273 491 276 492 277 494 281 494 282 498 277 496 275 497 275 501 276 503 278 502 280 505 282 509 280 514 286 521 289 514 293 516 300 516 301 519 306 519 305 521 307 521 308 524 313 525 312 530 322 532 323 533 324 534 326 535 325 536 319 540 316 540 316 547 311 548 312 549 308 550 306 552 293 554 290 548 287 548 285 549 283 547 279 546 279 548 274 551 276 556 277 565 271 565 270 567 272 569 271 571 273 571 274 574 266 575 264 579 264 587 262 588 259 593 260 596 262 595 263 597 262 610 263 611 266 611 265 617 262 616 260 622 260 624 259 626 255 629 252 628 250 631 250 633 242 635 240 634 239 629 237 626 238 621 234 612 233 606 230 604 233 600 232 594 231 595 224 594 222 595 222 597 220 597 213 600 208 598 206 598 204 601 196 598 195 595 190 594 184 596 178 593 183 586 189 585 185 581 191 579 194 581 195 571 202 571 204 569 205 566 208 566 207 562 209 550 208 548 209 546 211 546 212 547 216 542 219 545 224 539 230 539 230 535 232 532 231 528 231 520 230 518 230 516 225 517 222 515 225 511 225 509Z"/><path d="M82 610 83 604 80 603 81 601 78 596 80 593 79 589 77 589 77 587 82 584 93 589 89 580 88 577 90 573 95 576 98 578 104 578 106 580 109 576 110 579 114 578 117 576 116 571 114 571 113 570 115 567 121 565 122 564 118 560 119 555 117 554 115 550 110 550 109 548 111 546 115 546 111 544 113 537 116 537 117 538 119 534 122 534 123 538 124 541 124 545 128 541 131 541 130 537 134 535 130 533 128 532 129 529 129 526 132 521 135 520 138 520 146 525 147 523 150 524 152 522 152 528 149 528 150 529 153 531 155 530 155 532 157 534 157 530 160 530 164 535 160 537 160 539 167 539 171 543 170 550 172 551 173 549 175 550 175 553 172 553 171 556 188 566 188 562 191 562 191 567 195 569 195 571 194 581 192 579 185 581 189 585 183 586 178 593 184 596 190 594 195 595 196 598 204 601 206 598 208 598 213 600 220 598 222 597 222 595 224 594 231 595 232 594 233 600 230 604 233 606 234 612 238 621 237 626 239 629 240 634 233 633 231 636 227 637 226 636 225 638 215 640 215 642 213 641 211 643 214 646 211 647 208 649 207 648 206 646 208 645 205 643 205 641 200 642 199 644 196 645 192 640 191 641 189 640 187 642 185 646 180 648 176 648 179 654 180 656 179 657 179 659 177 659 176 660 174 659 174 663 170 665 168 664 164 665 162 668 157 662 156 663 155 662 153 665 155 667 154 668 155 672 149 676 148 675 143 680 144 681 141 682 139 678 136 677 135 674 133 674 134 672 132 670 130 667 131 665 133 662 129 659 127 658 127 655 129 654 127 652 127 650 128 649 124 648 125 644 116 640 117 637 113 628 110 627 108 628 105 622 102 621 94 620 88 621 87 618 85 618 86 615 83 613 82 610Z"/><path d="M71 619 73 617 77 616 79 617 79 614 82 611 83 612 86 615 85 618 87 618 88 621 94 620 102 621 105 622 108 628 110 627 113 628 117 637 116 640 125 644 124 648 128 649 127 650 127 652 129 654 127 655 127 658 129 659 133 662 131 665 130 667 132 670 134 672 133 674 135 674 136 677 139 678 141 682 144 681 146 683 146 686 144 689 145 691 142 692 142 694 140 696 137 695 136 697 140 706 144 705 147 716 152 720 145 727 141 726 138 722 136 722 136 724 133 726 130 725 127 726 125 723 122 726 119 727 118 725 117 724 114 726 114 729 110 731 107 727 103 726 101 729 98 728 99 730 98 731 96 730 96 734 88 701 86 697 86 694 87 693 86 682 82 658 79 651 75 627 71 619Z"/><path d="M260 622 262 622 263 625 266 625 269 627 271 634 273 634 276 645 278 646 279 647 285 647 285 652 291 656 294 656 292 662 295 664 300 663 301 666 302 665 304 670 304 672 301 674 297 671 297 673 294 673 294 676 287 675 286 681 282 680 282 683 281 680 277 680 274 684 274 689 268 691 268 694 263 692 262 693 260 700 262 700 261 710 258 710 248 709 243 709 240 709 238 711 237 709 235 710 232 709 231 715 227 715 225 714 223 716 221 719 221 722 224 725 222 727 222 729 220 730 222 735 222 740 221 741 218 739 216 739 211 741 209 740 203 751 200 753 198 755 198 752 193 747 195 743 193 735 189 731 188 733 187 731 185 729 184 730 182 727 181 729 179 729 178 723 176 721 175 720 171 719 168 721 167 725 164 727 163 726 162 727 158 726 154 723 152 720 147 716 144 705 140 706 136 697 137 695 140 696 142 694 142 692 145 691 144 689 146 686 146 683 144 681 143 680 148 675 149 676 155 672 154 668 155 667 153 665 155 662 156 663 157 662 162 668 164 665 168 664 170 665 174 663 174 659 176 661 177 659 179 659 179 657 180 656 179 654 176 648 180 648 185 646 187 642 189 641 191 641 192 640 196 645 199 644 200 642 205 641 205 643 208 645 206 646 207 648 208 649 211 647 214 646 211 643 213 641 215 642 215 640 225 638 226 636 227 637 231 636 233 633 240 634 242 635 250 633 250 631 252 628 255 629 258 626 260 624 260 622Z"/><path d="M446 652 451 651 450 647 454 647 454 650 456 650 457 645 455 643 456 642 458 642 460 646 465 642 467 642 469 644 471 643 468 642 468 640 476 637 475 641 479 640 479 644 481 644 481 636 489 633 490 632 489 630 493 629 496 626 496 623 493 620 495 616 496 617 504 617 504 619 508 621 514 614 516 615 515 618 516 622 511 624 511 632 514 632 518 626 523 627 524 623 528 625 528 627 532 627 533 630 532 635 534 637 529 643 533 647 532 650 527 649 526 652 529 655 529 657 532 655 538 655 540 655 539 658 544 659 543 663 542 664 543 666 544 668 543 669 544 672 542 674 543 675 545 680 543 683 541 687 535 689 534 692 533 693 536 693 537 695 535 696 535 699 532 700 535 703 535 705 529 702 524 704 524 706 519 706 519 703 517 703 515 705 512 705 512 707 509 708 509 711 508 712 506 712 503 712 505 710 503 709 501 711 499 714 498 711 494 710 493 711 494 709 492 708 493 704 495 705 495 703 493 702 495 700 490 696 485 695 484 696 482 695 480 696 480 694 478 695 478 698 476 696 474 697 473 695 473 690 470 691 470 693 468 693 467 692 468 689 466 689 465 688 467 687 466 684 464 685 464 687 459 687 458 685 455 686 453 684 453 682 448 680 443 681 441 677 437 676 437 674 438 672 437 671 437 666 436 664 434 664 434 660 439 653 444 652 446 652Z"/><path d="M198 755 200 753 203 751 209 740 211 741 216 739 218 739 221 741 222 740 222 735 220 730 222 729 222 727 224 725 221 722 221 719 223 716 225 714 227 715 231 715 232 709 235 710 237 709 238 711 240 709 243 708 248 709 258 709 261 710 262 700 260 700 262 693 263 692 268 694 268 691 274 689 274 684 277 680 281 680 281 683 282 680 286 681 287 675 294 676 294 673 297 673 297 671 301 674 304 672 304 670 308 673 312 673 310 675 308 676 310 679 309 682 311 683 308 687 308 689 307 691 306 695 301 695 302 703 303 710 304 712 306 713 305 717 310 718 314 721 316 724 318 724 318 731 321 731 323 734 324 735 325 733 335 734 336 735 337 737 335 736 335 738 335 740 336 743 339 743 339 746 336 749 337 752 335 752 334 755 334 760 332 761 332 765 324 765 324 767 320 770 321 774 320 773 318 775 316 774 318 771 314 768 312 768 312 763 310 762 310 765 307 765 306 767 304 767 304 770 300 770 300 772 302 773 301 776 303 778 301 780 303 784 302 789 301 790 298 793 299 796 296 797 297 795 295 794 293 796 293 793 289 795 288 793 285 792 283 794 284 795 281 799 282 801 276 801 276 805 274 808 271 808 271 810 267 806 268 805 263 804 262 801 259 802 255 800 252 801 253 803 251 803 248 797 249 795 248 794 249 789 248 788 251 787 252 783 249 782 247 776 252 773 252 770 247 770 246 767 245 769 240 766 238 769 238 772 240 774 238 775 238 777 236 778 237 781 241 784 241 787 240 788 235 788 231 784 225 788 219 783 217 784 213 785 210 785 208 786 207 784 211 782 211 778 210 777 209 776 208 775 206 771 207 763 204 762 199 762 198 756 199 755Z"/><path d="M509 711 509 708 512 707 512 705 515 705 517 703 519 703 519 706 524 706 524 704 529 702 535 705 535 703 532 700 535 699 535 696 537 696 536 693 533 693 534 692 535 689 541 687 543 683 545 680 543 675 542 674 544 672 543 669 544 668 543 667 545 665 546 664 548 664 551 665 560 663 570 664 569 669 566 675 567 690 565 695 571 697 569 699 567 697 567 699 570 701 573 699 575 699 575 702 581 700 580 703 585 705 587 708 588 705 591 705 591 702 593 706 594 707 593 708 591 714 593 715 589 717 593 719 593 721 589 722 589 725 585 726 588 730 584 732 585 736 578 738 578 743 579 745 579 747 574 746 575 749 571 751 572 754 575 753 578 757 578 762 576 756 571 757 570 755 568 756 564 752 562 757 560 757 559 759 561 760 558 761 558 763 553 762 550 763 550 773 548 776 535 773 525 764 521 763 521 765 518 767 519 769 516 770 515 766 513 767 513 764 511 763 510 764 510 768 507 767 507 763 510 762 508 761 509 760 508 759 506 760 501 761 498 759 499 756 497 754 501 752 500 747 503 743 503 737 506 737 508 735 510 735 510 733 509 734 506 733 505 730 506 728 509 729 510 727 512 726 511 722 513 718 512 714 510 715 513 711 509 711Z"/><path d="M437 674 437 676 441 677 443 681 448 680 453 682 453 684 455 686 458 685 459 687 464 687 464 685 466 684 467 687 465 688 466 690 468 689 467 692 468 693 470 693 470 691 473 690 473 695 474 697 476 696 478 698 478 695 480 694 480 696 482 696 484 696 485 695 490 696 495 700 493 702 495 703 495 705 493 704 492 708 494 709 492 711 494 710 498 711 498 714 500 711 501 712 503 709 505 710 503 712 506 712 508 712 509 711 513 711 510 715 512 714 513 718 511 722 512 726 510 727 509 729 506 728 505 730 506 733 509 734 510 733 510 735 508 735 506 737 503 737 503 743 500 747 501 752 497 754 499 756 498 759 500 761 496 761 495 762 493 755 496 754 493 753 491 755 487 752 489 748 488 742 489 739 486 734 487 729 482 728 481 727 483 722 482 718 478 718 476 716 477 718 473 719 472 718 473 717 467 715 465 717 462 717 461 715 460 714 458 712 455 716 454 713 450 714 448 722 443 722 440 727 438 728 441 730 443 732 442 734 437 735 438 737 438 740 436 740 435 742 435 745 432 747 430 747 429 743 430 738 427 738 428 730 425 729 424 726 422 728 423 723 415 724 413 719 414 717 411 713 412 711 411 709 411 707 415 708 417 701 419 703 422 702 424 704 424 702 427 702 428 700 431 699 432 687 434 687 432 682 436 680 437 674Z"/><path d="M96 734 96 730 98 731 99 730 98 728 101 729 103 726 107 727 110 731 114 729 114 726 116 724 118 725 119 727 122 726 125 723 127 726 130 725 133 726 136 724 136 722 138 722 141 725 145 727 152 720 153 723 158 726 162 727 163 726 164 727 167 725 168 721 171 719 175 720 176 721 178 723 179 729 181 729 182 727 184 730 185 729 187 731 187 733 189 731 193 735 195 743 193 747 198 752 198 756 199 755 198 756 199 762 204 761 207 763 206 771 208 775 209 776 210 777 211 778 211 781 207 784 208 786 210 785 213 785 209 794 211 796 211 798 212 801 213 805 206 810 203 806 198 811 199 813 195 812 194 813 190 814 189 817 186 815 186 813 187 812 182 807 181 810 180 809 180 812 175 811 174 813 174 815 172 816 169 816 169 812 165 811 165 808 162 808 161 805 161 802 163 802 163 800 167 802 168 799 166 799 162 796 157 802 154 802 153 799 152 800 153 798 151 796 152 794 147 795 143 792 146 788 145 787 143 788 140 787 139 785 137 784 137 788 134 789 132 789 131 786 133 785 132 782 126 782 127 781 123 779 127 775 126 772 125 773 124 772 123 773 121 774 117 774 110 777 108 776 102 765 96 734Z"/><path d="M430 747 432 747 435 745 435 742 436 740 438 740 438 737 437 735 442 734 443 732 441 731 438 728 440 727 443 722 448 722 450 714 454 713 455 716 458 712 460 713 461 715 461 717 465 717 467 715 473 717 472 718 473 719 477 718 476 716 478 718 482 718 483 722 481 727 482 728 487 729 486 734 489 739 488 742 489 748 487 752 491 755 493 753 496 754 493 755 495 762 493 764 491 764 490 765 493 767 491 770 492 771 489 775 490 778 487 779 486 781 488 781 486 785 483 785 483 788 480 787 479 790 475 790 475 787 473 787 465 789 467 783 464 781 461 784 459 780 461 780 462 778 465 777 464 775 463 773 461 776 460 773 459 771 458 774 459 775 457 778 455 780 454 778 453 780 449 777 449 773 448 772 450 771 446 768 444 770 443 768 442 767 444 764 441 762 443 761 440 761 436 764 435 761 431 760 430 759 432 759 431 751 430 747Z"/><path d="M213 785 217 784 219 783 225 788 231 784 234 788 240 788 241 787 241 784 237 781 236 778 238 777 238 775 240 774 238 772 238 769 240 766 245 769 246 767 247 770 252 770 252 773 247 776 249 782 252 783 251 787 248 788 249 789 248 794 249 795 248 797 251 803 253 803 252 801 255 801 258 802 258 804 255 803 256 805 254 806 255 809 253 809 251 813 252 818 251 819 247 820 244 825 246 827 251 833 256 834 255 836 258 840 259 846 264 845 269 853 274 853 275 858 278 863 281 872 280 875 276 877 271 882 265 884 257 888 248 887 239 886 236 882 234 881 233 877 230 874 229 872 230 868 224 868 219 870 219 868 217 867 217 865 212 866 210 864 209 859 206 858 203 859 201 858 198 853 195 852 196 850 189 840 180 840 182 838 179 832 181 829 175 826 173 823 173 817 177 818 181 815 180 813 180 809 181 810 182 807 187 812 186 813 186 815 189 817 190 814 194 813 195 812 199 813 198 811 203 806 206 810 212 805 212 801 211 798 211 796 209 794 213 785Z"/><path d="M310 912 311 909 310 908 312 907 310 905 317 907 317 904 320 903 320 898 326 896 328 898 329 893 331 890 329 886 332 881 340 881 341 878 347 879 348 881 350 881 353 878 360 881 360 878 362 876 363 875 363 878 365 879 368 879 372 877 372 879 374 879 378 877 379 876 376 876 373 871 368 871 370 871 372 868 371 864 367 864 365 861 366 858 368 858 367 857 367 855 370 856 370 860 373 863 380 866 385 860 386 855 387 858 389 857 389 861 392 860 392 862 393 856 398 853 403 853 404 849 403 846 401 847 409 844 409 837 416 838 422 837 426 839 429 838 432 841 435 841 441 841 443 840 445 845 448 846 449 847 448 851 453 852 457 852 459 852 466 851 482 855 484 858 485 860 488 864 479 874 475 886 472 885 468 887 463 887 460 887 457 888 451 887 450 894 447 893 448 900 443 912 438 908 434 908 431 910 425 905 424 906 419 904 418 907 401 910 402 917 397 915 394 910 396 909 395 908 393 908 391 910 392 907 388 904 384 905 383 909 381 907 375 907 372 915 369 918 365 926 365 928 368 931 367 934 364 932 355 931 336 932 334 931 331 931 329 930 328 923 323 919 319 921 316 925 311 924 309 919 312 916 310 914 310 912Z"/><path d="M302 665 305 664 306 666 308 663 310 666 312 664 316 664 316 660 321 660 326 656 325 654 327 654 331 651 331 647 337 645 338 647 344 647 346 650 346 645 347 640 351 636 352 638 354 638 356 638 357 636 356 631 351 622 354 621 356 619 363 620 362 617 367 614 367 611 364 609 366 606 370 607 372 602 375 600 377 601 377 598 380 596 383 597 383 600 378 601 378 605 387 610 386 614 392 618 393 621 390 622 389 628 386 629 384 632 385 634 385 637 387 643 389 644 390 638 392 639 395 643 398 643 399 640 409 641 410 638 407 635 409 632 404 628 406 626 409 627 408 621 411 619 412 621 411 626 413 627 415 624 416 626 418 622 419 626 421 627 420 629 424 629 428 627 429 631 434 628 437 630 443 630 441 634 442 635 444 636 445 634 447 635 446 637 448 641 448 648 446 648 446 651 444 652 439 653 434 659 434 664 436 664 437 666 437 671 438 672 437 674 436 680 432 682 434 687 432 687 431 699 428 700 427 702 424 702 424 704 422 702 419 703 417 701 415 708 411 707 411 709 412 711 411 713 414 717 413 719 409 718 406 720 402 722 402 726 399 724 399 726 396 727 397 732 396 735 397 736 396 738 402 742 400 744 401 745 404 744 403 743 406 746 404 747 407 750 408 753 407 756 405 755 404 758 401 758 402 760 404 759 404 763 406 764 406 767 408 767 406 769 407 772 406 773 403 774 400 774 399 777 397 776 397 778 396 777 393 778 392 774 390 776 388 776 388 773 387 774 384 772 383 770 377 770 373 765 372 758 369 757 369 755 373 755 373 753 369 754 366 751 366 747 368 747 363 742 359 742 357 739 347 739 344 736 342 742 341 743 339 743 336 743 335 740 335 738 335 736 337 737 336 735 335 734 325 733 324 734 321 731 318 731 318 724 316 724 314 721 310 718 305 717 306 713 304 712 303 710 302 704 301 696 306 695 307 691 308 689 308 687 311 683 309 682 310 679 308 677 310 675 312 673 308 673 304 670 302 665ZM387 582 387 578 388 577 389 576 393 575 394 576 397 580 400 579 402 578 403 573 402 571 403 568 404 564 405 563 408 562 413 565 418 566 424 563 424 570 434 571 434 577 436 578 438 582 441 580 441 578 440 573 437 572 436 568 438 564 440 563 443 564 443 566 445 566 446 571 449 569 452 571 453 573 451 577 453 582 454 583 453 587 448 585 438 585 436 590 433 591 432 595 438 591 439 593 434 600 431 600 430 604 438 606 437 612 442 610 444 612 444 616 441 616 441 619 444 620 439 624 439 621 433 622 432 620 435 615 432 614 434 610 431 609 429 605 427 604 423 607 423 604 419 607 410 607 409 608 406 608 403 602 397 603 397 601 390 600 391 597 389 595 390 592 390 585 390 583 387 582Z"/><path d="M413 719 415 724 423 723 422 728 424 726 425 729 428 730 427 738 430 737 429 743 430 747 431 751 432 759 430 759 431 760 435 761 436 764 440 761 443 761 441 762 443 764 442 767 443 768 444 770 446 768 450 770 448 772 449 773 449 777 453 780 454 778 455 780 457 777 459 775 458 774 458 771 460 772 461 776 463 773 464 775 465 776 462 778 461 780 459 780 461 784 464 781 467 783 465 789 466 794 464 796 463 804 464 810 467 810 463 814 466 815 469 812 470 813 467 829 462 834 459 840 456 840 455 841 451 841 449 842 448 846 445 845 443 841 441 841 435 841 432 841 429 838 430 830 428 826 424 826 424 821 422 820 422 816 418 816 418 814 416 815 418 812 416 811 415 814 409 814 406 817 403 814 404 809 402 804 404 804 404 802 401 797 403 795 400 794 400 788 396 787 397 778 397 776 399 777 400 774 403 774 406 773 407 772 406 769 408 767 406 767 406 764 404 763 404 759 402 760 401 758 404 758 405 755 407 756 408 753 407 750 404 747 406 746 404 743 401 745 400 744 402 742 396 738 397 736 396 735 397 732 396 727 398 726 399 724 402 726 402 722 405 720 408 718 412 719Z"/><path d="M383 845 383 842 384 843 384 845ZM374 831 374 829 376 828 375 831ZM301 791 302 789 304 784 301 780 303 778 301 776 302 773 300 773 300 770 304 770 304 767 306 767 307 765 310 765 310 762 312 763 312 768 314 768 318 771 316 774 318 775 320 773 321 775 320 770 324 767 324 765 332 765 332 761 334 760 334 755 335 752 337 752 336 749 339 747 339 743 341 743 342 742 344 736 347 739 357 739 359 742 363 742 368 747 366 747 366 751 369 754 373 753 373 755 369 755 369 757 372 758 373 765 377 770 383 770 384 772 387 774 388 773 388 776 390 776 392 774 393 778 396 777 397 778 396 787 400 788 400 794 403 795 401 797 404 802 404 804 402 804 404 809 403 814 406 817 409 814 415 814 416 811 418 812 416 815 418 814 418 816 422 816 422 820 424 821 424 826 428 826 430 830 429 837 426 839 422 837 416 838 409 837 409 844 401 847 401 849 397 849 397 847 392 848 386 846 386 840 383 840 384 838 386 839 387 837 385 834 384 835 384 831 381 832 381 835 377 836 378 833 377 831 379 831 379 825 377 819 374 820 374 824 371 825 368 824 365 825 365 827 363 827 361 831 356 832 356 837 355 838 353 836 352 833 350 831 348 832 345 830 345 826 341 826 337 829 330 832 330 828 329 826 330 825 330 822 315 814 315 811 311 807 312 806 310 804 307 804 308 802 305 801 304 794 301 790Z"/><path d="M259 802 262 801 263 804 268 805 267 806 271 810 271 808 274 808 276 805 276 801 282 801 281 799 284 795 283 794 285 792 288 793 289 795 293 793 293 796 295 794 297 795 296 797 299 796 298 793 301 791 304 794 305 801 308 802 307 804 310 804 312 806 311 807 315 811 315 814 330 822 330 825 329 826 330 828 330 832 337 829 340 826 345 826 345 830 348 832 350 831 352 833 352 836 355 838 356 837 356 832 361 831 363 827 365 827 365 825 368 824 371 825 374 824 374 820 377 819 379 825 379 831 377 831 378 833 377 836 381 835 381 832 384 831 384 835 385 834 387 837 386 839 384 838 383 840 386 840 386 846 392 848 397 847 397 849 401 849 401 847 403 846 404 848 403 853 398 853 393 856 392 862 392 860 389 861 389 857 387 858 386 855 385 860 380 866 373 863 370 860 370 856 367 855 367 857 368 858 366 858 365 861 367 864 371 864 372 868 370 871 368 871 373 871 376 876 379 876 378 877 374 879 372 879 372 877 368 879 365 879 363 878 363 875 362 876 360 878 360 881 353 878 350 881 348 881 347 879 341 878 340 881 332 881 329 886 331 890 329 893 328 898 326 896 320 898 320 903 317 904 317 907 310 905 312 907 310 908 311 909 310 912 302 915 301 914 298 913 296 908 293 905 288 906 285 905 284 903 283 898 281 897 277 897 272 899 271 898 271 882 276 877 280 875 281 872 278 863 275 858 274 853 269 853 264 845 259 846 258 840 255 836 256 834 251 833 246 827 244 826 247 820 251 819 252 818 251 813 253 809 255 809 254 806 256 805 255 803 258 804 259 802ZM383 845 384 843 383 842 383 845ZM374 831 376 829 374 829 374 831Z"/><path d="M266 157 265 160 269 163 269 165 268 168 273 170 280 177 281 178 285 178 288 182 290 182 292 180 300 180 303 177 304 180 303 184 308 183 307 185 303 187 307 190 307 193 312 189 312 195 314 203 313 205 308 206 308 212 312 213 313 210 316 212 317 216 313 217 313 219 313 221 316 221 318 225 312 225 312 223 305 222 302 227 310 228 310 230 305 230 305 234 313 235 314 238 312 238 311 241 314 241 315 240 316 242 315 241 312 244 309 251 313 268 313 279 307 279 306 280 303 281 300 280 300 285 297 284 296 286 297 291 294 293 296 295 295 300 302 300 302 306 300 312 295 313 293 317 288 316 281 314 278 313 274 314 265 310 264 309 264 307 265 306 265 303 260 297 250 298 231 288 220 285 208 278 204 278 200 282 198 281 198 276 195 275 191 277 191 280 189 281 184 282 182 280 186 274 185 269 189 269 189 263 187 262 190 258 186 254 183 244 189 244 190 237 181 234 178 234 176 235 175 227 177 221 169 220 170 209 171 208 177 205 181 207 183 205 186 204 189 206 190 210 195 207 200 207 200 201 205 202 205 207 208 207 209 209 214 207 212 205 213 198 209 198 210 195 214 194 213 187 210 187 210 185 207 179 208 177 212 174 211 167 208 166 207 163 204 161 205 156 201 155 201 151 206 150 205 146 208 138 214 141 216 147 219 148 221 146 225 148 226 151 229 152 231 152 233 146 237 147 238 151 241 146 242 148 242 155 247 159 256 157 258 155 264 155 266 157Z"/></svg>